Patient4_TMGait_0pt5_02_left_18_EMG.mot
version=1
nRows=13
nColumns=33
inDegrees=no
endheader
time	1LAddLong	2LGlutMax	3LGlutMed	4LIliopsoas	5LSemiMemb	6LBicFemLong	7LRecFem	8LVastMed	9LVastLat	10LGasMed	11LTibAnt	12lTibPost	13LPeroneusLong	14LSol	15LExtDigLong	16LFlexDigLong	17RAddLong	18RGlutMax	19RGlutMed	20RIliopsoas	21RSemiMemb	22RBicFemLong	23RRecFem	24RVastMed	25RVastLat	26RGasMed	27RTibAnt	28RTibPost	29RPeroneusLong	30RSol	31RExtDigLong	32RFlexDigLong
24.085	-0.000153	-0.051727	-0.03479	-0.006409	-0.006866	-0.011139	-0.21103	0.00473	0.008698	-0.041046	0.006409	-0.002594	-0.014038	-0.069733	-0.01236	0.022583	0.019684	0.086365	-0.023499	-0.021057	-0.053711	-0.067291	0.15167	-0.060577	0.13611	0.10284	-0.33798	-0.10544	0.44479	0.31052	-0.001831	-0.006561
24.086	0.027313	-0.062103	-0.01297	-0.01358	0.010529	-0.042114	-0.21454	0.002136	0.014343	-0.031128	-0.017548	-0.002747	-0.023499	-0.062714	-0.016937	0.026855	-0.003052	0.082397	0.39291	-0.023651	-0.10895	0.003204	0.14923	-0.093842	0.11658	0.061798	-0.007782	0.15656	0.34317	0.3009	-0.001526	-0.005341
24.087	-0.011749	-0.059662	0.04837	0.007019	0.032501	-0.036163	-0.20218	0.005188	0.02594	-0.029602	-0.03006	-0.007172	-0.034943	-0.029144	-0.008698	0.023499	-0.004578	0.159	0.42191	-0.024261	-0.05127	0.048065	0.13763	-0.026245	0.03479	0.039978	0.13916	-0.020905	-0.035553	0.082855	-0.002899	0.00061
24.088	-0.035095	-0.082703	0.079193	0.007324	0.027161	-0.018616	-0.22873	0.002136	0.018158	-0.015869	-0.063171	-0.014343	-0.008392	-0.035553	-0.015564	0.021515	-0.005798	0.11124	0.075378	-0.002289	0.049286	0.023651	-0.045013	-0.098114	-0.48126	0.045319	0.12589	-0.008087	-0.21805	0.027313	-0.005035	-0.00061
24.089	-0.000153	-0.07431	0.039825	-0.005341	0.024414	0.014191	-0.21072	0.008545	0.013275	-0.036316	-0.090637	-0.010376	0.038147	-0.052948	-0.021057	0.016632	0.023804	0.075989	0.15182	0.034943	0.12558	-0.035706	-0.14252	-0.10239	-0.36301	0.052795	0.35461	0.010529	-0.28198	0.30838	-0.000916	-0.000305
24.09	-0.011292	-0.050812	0.012512	0.012054	0.001984	0.001373	-0.2034	0.006561	0.007477	-0.041046	-0.027008	-0.006866	0.067291	-0.056915	-0.0177	0.02243	0.020142	0.025177	0.14786	0.016785	0.1474	-0.08667	-0.050812	0.005951	-0.11673	0.023804	0.9111	-0.016632	-0.24429	0.074463	-0.002899	0.003967
24.091	-0.004578	-0.046234	-0.002747	0.00412	-0.017853	-0.048981	-0.19928	0.003204	-0.011139	-0.032654	0.025482	-0.007477	0.032043	-0.036163	-0.001526	0.021973	0.035095	0.019684	-0.067596	0.042572	0.22705	-0.079193	-0.028534	-0.041962	-0.026703	0.007935	1.4398	-0.13473	-0.097046	-0.26489	-0.003815	-0.00061
24.092	0.011749	-0.069122	-0.005798	0.002899	-0.035553	-0.05249	-0.19974	-0.002136	-0.007019	-0.016937	0.04776	0.002136	-0.003967	-0.037231	0.005493	0.018158	0.038605	0.035095	0.064392	0.025482	0.024109	-0.007477	0.036011	-0.04715	0.058289	0.014801	1.0408	-0.031891	0.13687	-0.62332	-0.005188	0.004272
24.093	0.014191	-0.076447	-0.03418	0.012512	-0.010681	-0.024414	-0.20233	-0.007019	-0.013123	-0.016479	0.042572	-0.002747	-0.016327	-0.032043	0.004272	0.026245	0.054169	0.047607	0.30411	0.012512	-0.062103	-0.018463	0.06958	-0.056458	0.072327	0.011444	-0.13077	0.11566	0.17105	-0.60059	-0.001831	0.005188
24.094	0.008087	-0.083466	-0.010071	-0.010223	0.03952	-0.03067	-0.19989	-0.012207	-0.011902	-0.021667	0.027924	0.011444	-0.022583	-0.034637	-0.011444	0.016022	0.012817	0.15243	0.21484	-0.004272	-0.05661	-0.022125	0.000153	-0.035095	0.051422	0.005951	-0.672	0.066833	0.11078	-0.29037	-0.001678	-0.002136
24.095	0.01297	-0.067596	-0.015717	0.003815	0.043793	0.023499	-0.17868	0.001373	-0.010376	-0.017395	0.00885	0.021057	-0.018463	-0.057068	-0.028839	0.010223	-0.019379	0.17227	0.22964	0.011597	0.12604	-0.032959	-0.014801	0.052948	0.042267	0.005493	-1.0686	0.002747	0.096893	-0.20233	-0.000916	0.001221
24.096	0.007629	-0.054321	-0.038452	0.005341	0.030212	0.10483	-0.18356	-0.001373	0.000305	-0.026398	-0.002899	0.017853	-0.021667	-0.057983	-0.031586	0.018616	-0.013123	0.20462	0.12711	0.001221	-0.25452	-0.10147	-0.000763	0.074158	0.030823	0.009155	-1.3992	-0.007629	0.036316	0.01297	-0.000916	-0.011292
24.097	0.011444	-0.027008	-0.025787	0.016937	0.027313	0.09552	-0.18982	-0.010071	0.000305	-0.029755	-0.005798	0.025787	-0.014343	-0.052338	-0.022125	0.014801	0.024719	0.14954	-0.040283	0.030975	-0.18768	-0.22369	0.008087	0.035706	0.035706	0.010681	-1.1273	-0.017242	-0.00473	0.10971	-0.003052	-0.005493
